%TF.GenerationSoftware,KiCad,Pcbnew,9.0.2*%
%TF.CreationDate,2025-12-07T18:16:57+01:00*%
%TF.ProjectId,Driver Carrier v2,44726976-6572-4204-9361-727269657220,rev?*%
%TF.SameCoordinates,Original*%
%TF.FileFunction,Soldermask,Bot*%
%TF.FilePolarity,Negative*%
%FSLAX46Y46*%
G04 Gerber Fmt 4.6, Leading zero omitted, Abs format (unit mm)*
G04 Created by KiCad (PCBNEW 9.0.2) date 2025-12-07 18:16:57*
%MOMM*%
%LPD*%
G01*
G04 APERTURE LIST*
G04 Aperture macros list*
%AMRoundRect*
0 Rectangle with rounded corners*
0 $1 Rounding radius*
0 $2 $3 $4 $5 $6 $7 $8 $9 X,Y pos of 4 corners*
0 Add a 4 corners polygon primitive as box body*
4,1,4,$2,$3,$4,$5,$6,$7,$8,$9,$2,$3,0*
0 Add four circle primitives for the rounded corners*
1,1,$1+$1,$2,$3*
1,1,$1+$1,$4,$5*
1,1,$1+$1,$6,$7*
1,1,$1+$1,$8,$9*
0 Add four rect primitives between the rounded corners*
20,1,$1+$1,$2,$3,$4,$5,0*
20,1,$1+$1,$4,$5,$6,$7,0*
20,1,$1+$1,$6,$7,$8,$9,0*
20,1,$1+$1,$8,$9,$2,$3,0*%
G04 Aperture macros list end*
%ADD10R,1.700000X1.700000*%
%ADD11C,1.700000*%
%ADD12RoundRect,0.250000X-0.550000X-0.550000X0.550000X-0.550000X0.550000X0.550000X-0.550000X0.550000X0*%
%ADD13C,1.600000*%
%ADD14RoundRect,0.250000X0.550000X0.550000X-0.550000X0.550000X-0.550000X-0.550000X0.550000X-0.550000X0*%
%ADD15O,1.700000X1.700000*%
%ADD16RoundRect,0.102000X-0.900000X-0.900000X0.900000X-0.900000X0.900000X0.900000X-0.900000X0.900000X0*%
%ADD17C,2.004000*%
%ADD18C,6.000000*%
%ADD19RoundRect,0.102000X0.900000X-0.900000X0.900000X0.900000X-0.900000X0.900000X-0.900000X-0.900000X0*%
G04 APERTURE END LIST*
D10*
%TO.C,J4*%
X180880000Y-118000000D03*
D11*
X183420000Y-118000000D03*
X185960000Y-118000000D03*
X188500000Y-118000000D03*
%TD*%
D12*
%TO.C,C2*%
X121500000Y-63000000D03*
D13*
X125000000Y-63000000D03*
%TD*%
D10*
%TO.C,J11*%
X181000000Y-31500000D03*
D11*
X181000000Y-28960000D03*
X181000000Y-26420000D03*
%TD*%
D10*
%TO.C,J8*%
X167500000Y-31500000D03*
D11*
X167500000Y-28960000D03*
X167500000Y-26420000D03*
%TD*%
D14*
%TO.C,C6*%
X174500000Y-63500000D03*
D13*
X171000000Y-63500000D03*
%TD*%
D10*
%TO.C,J10*%
X176500000Y-31500000D03*
D11*
X176500000Y-28960000D03*
X176500000Y-26420000D03*
%TD*%
D10*
%TO.C,U13*%
X136500000Y-43500000D03*
D15*
X136500000Y-46040000D03*
X136500000Y-48580000D03*
X136500000Y-51120000D03*
X136500000Y-53660000D03*
X136500000Y-56200000D03*
X136500000Y-58740000D03*
X136500000Y-61280000D03*
X136500000Y-63820000D03*
X136500000Y-66360000D03*
X136500000Y-68900000D03*
X136500000Y-71440000D03*
X136500000Y-73980000D03*
X136500000Y-76520000D03*
X136500000Y-79060000D03*
X136500000Y-81600000D03*
X136500000Y-84140000D03*
X136500000Y-86680000D03*
X136500000Y-89220000D03*
X136500000Y-91760000D03*
X136500000Y-94300000D03*
X136500000Y-96840000D03*
D10*
X159360000Y-43500000D03*
D15*
X159360000Y-46040000D03*
X159360000Y-48580000D03*
X159360000Y-51120000D03*
X159360000Y-53660000D03*
X159360000Y-56200000D03*
X159360000Y-58740000D03*
X159360000Y-61280000D03*
X159360000Y-63820000D03*
X159360000Y-66360000D03*
X159360000Y-68900000D03*
X159360000Y-71440000D03*
X159360000Y-73980000D03*
X159360000Y-76520000D03*
X159360000Y-79060000D03*
X159360000Y-81600000D03*
X159360000Y-84140000D03*
X159360000Y-86680000D03*
X159360000Y-89220000D03*
X159360000Y-91760000D03*
X159360000Y-94300000D03*
X159360000Y-96840000D03*
%TD*%
D12*
%TO.C,C1*%
X121500000Y-36500000D03*
D13*
X125000000Y-36500000D03*
%TD*%
D16*
%TO.C,J14*%
X117000000Y-25000000D03*
D17*
X120500000Y-25000000D03*
%TD*%
D10*
%TO.C,U6*%
X187890000Y-43650000D03*
D11*
X185350000Y-43650000D03*
X182810000Y-43650000D03*
X180270000Y-43650000D03*
X177730000Y-43650000D03*
X175190000Y-43650000D03*
X172650000Y-43650000D03*
X170110000Y-43650000D03*
D10*
X187890000Y-56350000D03*
D11*
X185350000Y-56350000D03*
X182810000Y-56350000D03*
X180270000Y-56350000D03*
X177730000Y-56350000D03*
X175190000Y-56350000D03*
X172650000Y-56350000D03*
X170110000Y-56350000D03*
%TD*%
D10*
%TO.C,J5*%
X180880000Y-91500000D03*
D11*
X183420000Y-91500000D03*
X185960000Y-91500000D03*
X188500000Y-91500000D03*
%TD*%
D10*
%TO.C,U4*%
X187890000Y-96650000D03*
D11*
X185350000Y-96650000D03*
X182810000Y-96650000D03*
X180270000Y-96650000D03*
X177730000Y-96650000D03*
X175190000Y-96650000D03*
X172650000Y-96650000D03*
X170110000Y-96650000D03*
D10*
X187890000Y-109350000D03*
D11*
X185350000Y-109350000D03*
X182810000Y-109350000D03*
X180270000Y-109350000D03*
X177730000Y-109350000D03*
X175190000Y-109350000D03*
X172650000Y-109350000D03*
X170110000Y-109350000D03*
%TD*%
D10*
%TO.C,J1*%
X115120000Y-35000000D03*
D11*
X112580000Y-35000000D03*
X110040000Y-35000000D03*
X107500000Y-35000000D03*
%TD*%
D10*
%TO.C,J3*%
X115120000Y-88000000D03*
D11*
X112580000Y-88000000D03*
X110040000Y-88000000D03*
X107500000Y-88000000D03*
%TD*%
D14*
%TO.C,C5*%
X174500000Y-90000000D03*
D13*
X171000000Y-90000000D03*
%TD*%
D14*
%TO.C,C4*%
X174500000Y-116500000D03*
D13*
X171000000Y-116500000D03*
%TD*%
D10*
%TO.C,U2*%
X108150000Y-82850000D03*
D11*
X110690000Y-82850000D03*
X113230000Y-82850000D03*
X115770000Y-82850000D03*
X118310000Y-82850000D03*
X120850000Y-82850000D03*
X123390000Y-82850000D03*
X125930000Y-82850000D03*
D10*
X108150000Y-70150000D03*
D11*
X110690000Y-70150000D03*
X113230000Y-70150000D03*
X115770000Y-70150000D03*
X118310000Y-70150000D03*
X120850000Y-70150000D03*
X123390000Y-70150000D03*
X125930000Y-70150000D03*
%TD*%
D12*
%TO.C,C3*%
X121500000Y-89500000D03*
D13*
X125000000Y-89500000D03*
%TD*%
D18*
%TO.C,REF\u002A\u002A*%
X105500000Y-116000000D03*
%TD*%
D10*
%TO.C,J17*%
X129810000Y-115500000D03*
D11*
X127270000Y-115500000D03*
X124730000Y-115500000D03*
X122190000Y-115500000D03*
%TD*%
D10*
%TO.C,J12*%
X185500000Y-31500000D03*
D11*
X185500000Y-28960000D03*
X185500000Y-26420000D03*
%TD*%
D10*
%TO.C,J2*%
X115160000Y-61500000D03*
D11*
X112620000Y-61500000D03*
X110080000Y-61500000D03*
X107540000Y-61500000D03*
%TD*%
D10*
%TO.C,U3*%
X108150000Y-109350000D03*
D11*
X110690000Y-109350000D03*
X113230000Y-109350000D03*
X115770000Y-109350000D03*
X118310000Y-109350000D03*
X120850000Y-109350000D03*
X123390000Y-109350000D03*
X125930000Y-109350000D03*
D10*
X108150000Y-96650000D03*
D11*
X110690000Y-96650000D03*
X113230000Y-96650000D03*
X115770000Y-96650000D03*
X118310000Y-96650000D03*
X120850000Y-96650000D03*
X123390000Y-96650000D03*
X125930000Y-96650000D03*
%TD*%
D19*
%TO.C,J15*%
X108775000Y-27970000D03*
D17*
X108775000Y-24470000D03*
%TD*%
D10*
%TO.C,J16*%
X190000000Y-28960000D03*
D11*
X190000000Y-31500000D03*
%TD*%
D18*
%TO.C,REF\u002A\u002A*%
X148000000Y-25000000D03*
%TD*%
D10*
%TO.C,J13*%
X135310000Y-27000000D03*
D11*
X132770000Y-27000000D03*
X130230000Y-27000000D03*
X127690000Y-27000000D03*
%TD*%
D10*
%TO.C,J9*%
X172000000Y-31500000D03*
D11*
X172000000Y-28960000D03*
X172000000Y-26420000D03*
%TD*%
D10*
%TO.C,U1*%
X108150000Y-56350000D03*
D11*
X110690000Y-56350000D03*
X113230000Y-56350000D03*
X115770000Y-56350000D03*
X118310000Y-56350000D03*
X120850000Y-56350000D03*
X123390000Y-56350000D03*
X125930000Y-56350000D03*
D10*
X108150000Y-43650000D03*
D11*
X110690000Y-43650000D03*
X113230000Y-43650000D03*
X115770000Y-43650000D03*
X118310000Y-43650000D03*
X120850000Y-43650000D03*
X123390000Y-43650000D03*
X125930000Y-43650000D03*
%TD*%
D10*
%TO.C,J7*%
X163000000Y-31500000D03*
D11*
X163000000Y-28960000D03*
X163000000Y-26420000D03*
%TD*%
D10*
%TO.C,U5*%
X187890000Y-70150000D03*
D11*
X185350000Y-70150000D03*
X182810000Y-70150000D03*
X180270000Y-70150000D03*
X177730000Y-70150000D03*
X175190000Y-70150000D03*
X172650000Y-70150000D03*
X170110000Y-70150000D03*
D10*
X187890000Y-82850000D03*
D11*
X185350000Y-82850000D03*
X182810000Y-82850000D03*
X180270000Y-82850000D03*
X177730000Y-82850000D03*
X175190000Y-82850000D03*
X172650000Y-82850000D03*
X170110000Y-82850000D03*
%TD*%
D10*
%TO.C,J6*%
X180880000Y-65000000D03*
D11*
X183420000Y-65000000D03*
X185960000Y-65000000D03*
X188500000Y-65000000D03*
%TD*%
D18*
%TO.C,REF\u002A\u002A*%
X148500000Y-116000000D03*
%TD*%
M02*
