M48
; DRILL file {KiCad 9.0.2} date 2025-12-07T18:17:01+0100
; FORMAT={-:-/ absolute / inch / decimal}
; #@! TF.CreationDate,2025-12-07T18:17:01+01:00
; #@! TF.GenerationSoftware,Kicad,Pcbnew,9.0.2
; #@! TF.FileFunction,MixedPlating,1,2
FMAT,2
INCH
; #@! TA.AperFunction,Plated,PTH,ViaDrill
T1C0.0118
; #@! TA.AperFunction,Plated,PTH,ComponentDrill
T2C0.0315
; #@! TA.AperFunction,Plated,PTH,ComponentDrill
T3C0.0394
; #@! TA.AperFunction,Plated,PTH,ComponentDrill
T4C0.0472
; #@! TA.AperFunction,Plated,PTH,ComponentDrill
T5C0.1260
%
G90
G05
T1
X4.2126Y-1.7913
X4.2126Y-1.8701
X4.2126Y-1.9488
X4.2126Y-2.0276
X4.2126Y-2.1063
X4.2126Y-2.8543
X4.2126Y-2.9331
X4.2126Y-3.0118
X4.2126Y-3.0906
X4.2126Y-3.1693
X4.2323Y-1.8307
X4.2323Y-1.9094
X4.2323Y-1.9882
X4.2323Y-2.0669
X4.2323Y-2.8937
X4.2323Y-2.9724
X4.2323Y-3.0512
X4.2323Y-3.1299
X4.252Y-1.7913
X4.252Y-1.8701
X4.252Y-1.9488
X4.252Y-2.0276
X4.252Y-2.1063
X4.252Y-2.8543
X4.252Y-2.9331
X4.252Y-3.0118
X4.252Y-3.0906
X4.252Y-3.1693
X4.2717Y-1.8307
X4.2717Y-1.9094
X4.2717Y-1.9882
X4.2717Y-2.0669
X4.2717Y-2.8937
X4.2717Y-2.9724
X4.2717Y-3.0512
X4.2717Y-3.1299
X5.0197Y-1.3386
X5.0394Y-1.6339
X5.0394Y-1.6732
X5.0394Y-1.752
X5.0394Y-1.7913
X5.0787Y-2.0669
X5.0787Y-3.1496
X5.0787Y-4.1929
X5.1181Y-1.3386
X5.1197Y-1.9882
X5.1197Y-3.0709
X5.1197Y-4.1142
X5.1591Y-1.9488
X5.1591Y-3.0315
X5.1591Y-4.0748
X5.1772Y-1.2992
X5.1772Y-1.3386
X5.1969Y-3.2874
X5.2362Y-1.2598
X5.2362Y-1.3386
X5.2362Y-3.248
X5.2559Y-1.2992
X5.2756Y-1.2598
X5.2756Y-1.3386
X5.2756Y-3.2087
X5.2953Y-1.2992
X5.315Y-1.2598
X5.315Y-1.3386
X5.315Y-3.1693
X5.3346Y-1.2992
X5.3543Y-1.2598
X5.3543Y-1.3386
X5.374Y-1.2992
X5.3937Y-1.2598
X5.3937Y-1.3386
X5.4134Y-1.2992
X5.4331Y-1.0236
X5.4331Y-1.1024
X5.4331Y-1.2598
X5.4331Y-1.3386
X5.4528Y-1.063
X5.4528Y-1.2992
X5.4724Y-1.0236
X5.4724Y-1.1024
X5.4724Y-1.2598
X5.4724Y-1.3386
X5.4921Y-1.063
X5.4921Y-1.2992
X5.5118Y-1.0236
X5.5118Y-1.1024
X5.5118Y-1.2598
X5.5118Y-1.3386
X5.5315Y-1.063
X5.5315Y-1.2992
X5.5512Y-1.0236
X5.5512Y-1.1024
X5.5512Y-1.2598
X5.5512Y-1.3386
X5.5709Y-1.063
X5.5709Y-1.2992
X5.5906Y-1.0236
X5.5906Y-1.1024
X5.5906Y-1.2598
X5.5906Y-1.3386
X5.689Y-1.6142
X5.7283Y-1.6142
X5.748Y-1.7323
X5.7677Y-1.6142
X5.7874Y-1.6732
X6.3386Y-2.3031
X6.378Y-2.2638
X6.4173Y-2.2244
X6.4567Y-2.185
X6.4961Y-1.8898
X6.4961Y-2.2638
X6.4961Y-2.9134
X6.4961Y-3.9567
X6.5354Y-1.8504
X6.5354Y-2.3228
X6.5354Y-2.874
X6.5354Y-3.9173
X6.5748Y-1.811
X6.5748Y-2.0866
X6.5748Y-2.8346
X6.5748Y-3.878
X7.3819Y-1.811
X7.3819Y-1.8898
X7.3819Y-1.9685
X7.3819Y-2.0472
X7.3819Y-2.126
X7.3819Y-2.8543
X7.3819Y-2.9331
X7.3819Y-3.0118
X7.3819Y-3.0906
X7.3819Y-3.1693
X7.3819Y-3.8976
X7.3819Y-3.9764
X7.3819Y-4.0551
X7.3819Y-4.1339
X7.3819Y-4.2126
X7.4016Y-1.8504
X7.4016Y-1.9291
X7.4016Y-2.0079
X7.4016Y-2.0866
X7.4016Y-2.8937
X7.4016Y-2.9724
X7.4016Y-3.0512
X7.4016Y-3.1299
X7.4016Y-3.937
X7.4016Y-4.0157
X7.4016Y-4.0945
X7.4016Y-4.1732
X7.4213Y-1.811
X7.4213Y-1.8898
X7.4213Y-1.9685
X7.4213Y-2.0472
X7.4213Y-2.126
X7.4213Y-2.8543
X7.4213Y-2.9331
X7.4213Y-3.0118
X7.4213Y-3.0906
X7.4213Y-3.1693
X7.4213Y-3.8976
X7.4213Y-3.9764
X7.4213Y-4.0551
X7.4213Y-4.1339
X7.4213Y-4.2126
X7.4409Y-1.8504
X7.4409Y-1.9291
X7.4409Y-2.0079
X7.4409Y-2.0866
X7.4409Y-2.8937
X7.4409Y-2.9724
X7.4409Y-3.0512
X7.4409Y-3.1299
X7.4409Y-3.937
X7.4409Y-4.0157
X7.4409Y-4.0945
X7.4409Y-4.1732
T2
X4.7835Y-1.437
X4.7835Y-2.4803
X4.7835Y-3.5236
X4.9213Y-1.437
X4.9213Y-2.4803
X4.9213Y-3.5236
X6.7323Y-2.5
X6.7323Y-3.5433
X6.7323Y-4.5866
X6.8701Y-2.5
X6.8701Y-3.5433
X6.8701Y-4.5866
T3
X4.2323Y-1.378
X4.2323Y-3.4646
X4.2339Y-2.4213
X4.2579Y-1.7185
X4.2579Y-2.2185
X4.2579Y-2.7618
X4.2579Y-3.2618
X4.2579Y-3.8051
X4.2579Y-4.3051
X4.3323Y-1.378
X4.3323Y-3.4646
X4.3339Y-2.4213
X4.3579Y-1.7185
X4.3579Y-2.2185
X4.3579Y-2.7618
X4.3579Y-3.2618
X4.3579Y-3.8051
X4.3579Y-4.3051
X4.4323Y-1.378
X4.4323Y-3.4646
X4.4339Y-2.4213
X4.4579Y-1.7185
X4.4579Y-2.2185
X4.4579Y-2.7618
X4.4579Y-3.2618
X4.4579Y-3.8051
X4.4579Y-4.3051
X4.5323Y-1.378
X4.5323Y-3.4646
X4.5339Y-2.4213
X4.5579Y-1.7185
X4.5579Y-2.2185
X4.5579Y-2.7618
X4.5579Y-3.2618
X4.5579Y-3.8051
X4.5579Y-4.3051
X4.6579Y-1.7185
X4.6579Y-2.2185
X4.6579Y-2.7618
X4.6579Y-3.2618
X4.6579Y-3.8051
X4.6579Y-4.3051
X4.7579Y-1.7185
X4.7579Y-2.2185
X4.7579Y-2.7618
X4.7579Y-3.2618
X4.7579Y-3.8051
X4.7579Y-4.3051
X4.8106Y-4.5472
X4.8579Y-1.7185
X4.8579Y-2.2185
X4.8579Y-2.7618
X4.8579Y-3.2618
X4.8579Y-3.8051
X4.8579Y-4.3051
X4.9106Y-4.5472
X4.9579Y-1.7185
X4.9579Y-2.2185
X4.9579Y-2.7618
X4.9579Y-3.2618
X4.9579Y-3.8051
X4.9579Y-4.3051
X5.0106Y-4.5472
X5.0272Y-1.063
X5.1106Y-4.5472
X5.1272Y-1.063
X5.2272Y-1.063
X5.3272Y-1.063
X5.374Y-1.7126
X5.374Y-1.8126
X5.374Y-1.9126
X5.374Y-2.0126
X5.374Y-2.1126
X5.374Y-2.2126
X5.374Y-2.3126
X5.374Y-2.4126
X5.374Y-2.5126
X5.374Y-2.6126
X5.374Y-2.7126
X5.374Y-2.8126
X5.374Y-2.9126
X5.374Y-3.0126
X5.374Y-3.1126
X5.374Y-3.2126
X5.374Y-3.3126
X5.374Y-3.4126
X5.374Y-3.5126
X5.374Y-3.6126
X5.374Y-3.7126
X5.374Y-3.8126
X6.274Y-1.7126
X6.274Y-1.8126
X6.274Y-1.9126
X6.274Y-2.0126
X6.274Y-2.1126
X6.274Y-2.2126
X6.274Y-2.3126
X6.274Y-2.4126
X6.274Y-2.5126
X6.274Y-2.6126
X6.274Y-2.7126
X6.274Y-2.8126
X6.274Y-2.9126
X6.274Y-3.0126
X6.274Y-3.1126
X6.274Y-3.2126
X6.274Y-3.3126
X6.274Y-3.4126
X6.274Y-3.5126
X6.274Y-3.6126
X6.274Y-3.7126
X6.274Y-3.8126
X6.4173Y-1.0402
X6.4173Y-1.1402
X6.4173Y-1.2402
X6.5945Y-1.0402
X6.5945Y-1.1402
X6.5945Y-1.2402
X6.6972Y-1.7185
X6.6972Y-2.2185
X6.6972Y-2.7618
X6.6972Y-3.2618
X6.6972Y-3.8051
X6.6972Y-4.3051
X6.7717Y-1.0402
X6.7717Y-1.1402
X6.7717Y-1.2402
X6.7972Y-1.7185
X6.7972Y-2.2185
X6.7972Y-2.7618
X6.7972Y-3.2618
X6.7972Y-3.8051
X6.7972Y-4.3051
X6.8972Y-1.7185
X6.8972Y-2.2185
X6.8972Y-2.7618
X6.8972Y-3.2618
X6.8972Y-3.8051
X6.8972Y-4.3051
X6.9488Y-1.0402
X6.9488Y-1.1402
X6.9488Y-1.2402
X6.9972Y-1.7185
X6.9972Y-2.2185
X6.9972Y-2.7618
X6.9972Y-3.2618
X6.9972Y-3.8051
X6.9972Y-4.3051
X7.0972Y-1.7185
X7.0972Y-2.2185
X7.0972Y-2.7618
X7.0972Y-3.2618
X7.0972Y-3.8051
X7.0972Y-4.3051
X7.1213Y-2.5591
X7.1213Y-3.6024
X7.1213Y-4.6457
X7.126Y-1.0402
X7.126Y-1.1402
X7.126Y-1.2402
X7.1972Y-1.7185
X7.1972Y-2.2185
X7.1972Y-2.7618
X7.1972Y-3.2618
X7.1972Y-3.8051
X7.1972Y-4.3051
X7.2213Y-2.5591
X7.2213Y-3.6024
X7.2213Y-4.6457
X7.2972Y-1.7185
X7.2972Y-2.2185
X7.2972Y-2.7618
X7.2972Y-3.2618
X7.2972Y-3.8051
X7.2972Y-4.3051
X7.3031Y-1.0402
X7.3031Y-1.1402
X7.3031Y-1.2402
X7.3213Y-2.5591
X7.3213Y-3.6024
X7.3213Y-4.6457
X7.3972Y-1.7185
X7.3972Y-2.2185
X7.3972Y-2.7618
X7.3972Y-3.2618
X7.3972Y-3.8051
X7.3972Y-4.3051
X7.4213Y-2.5591
X7.4213Y-3.6024
X7.4213Y-4.6457
X7.4803Y-1.1402
X7.4803Y-1.2402
T4
X4.2825Y-0.9634
X4.2825Y-1.1012
X4.6063Y-0.9843
X4.7441Y-0.9843
T5
X4.1535Y-4.5669
X5.8268Y-0.9843
X5.8465Y-4.5669
M30
