%TF.GenerationSoftware,KiCad,Pcbnew,9.0.0*%
%TF.CreationDate,2025-02-26T12:42:58+01:00*%
%TF.ProjectId,Driver Carrier v1,44726976-6572-4204-9361-727269657220,rev?*%
%TF.SameCoordinates,Original*%
%TF.FileFunction,Soldermask,Top*%
%TF.FilePolarity,Negative*%
%FSLAX46Y46*%
G04 Gerber Fmt 4.6, Leading zero omitted, Abs format (unit mm)*
G04 Created by KiCad (PCBNEW 9.0.0) date 2025-02-26 12:42:58*
%MOMM*%
%LPD*%
G01*
G04 APERTURE LIST*
G04 Aperture macros list*
%AMRoundRect*
0 Rectangle with rounded corners*
0 $1 Rounding radius*
0 $2 $3 $4 $5 $6 $7 $8 $9 X,Y pos of 4 corners*
0 Add a 4 corners polygon primitive as box body*
4,1,4,$2,$3,$4,$5,$6,$7,$8,$9,$2,$3,0*
0 Add four circle primitives for the rounded corners*
1,1,$1+$1,$2,$3*
1,1,$1+$1,$4,$5*
1,1,$1+$1,$6,$7*
1,1,$1+$1,$8,$9*
0 Add four rect primitives between the rounded corners*
20,1,$1+$1,$2,$3,$4,$5,0*
20,1,$1+$1,$4,$5,$6,$7,0*
20,1,$1+$1,$6,$7,$8,$9,0*
20,1,$1+$1,$8,$9,$2,$3,0*%
G04 Aperture macros list end*
%ADD10R,1.600000X1.600000*%
%ADD11C,1.600000*%
%ADD12R,1.700000X1.700000*%
%ADD13O,1.700000X1.700000*%
%ADD14C,2.004000*%
%ADD15RoundRect,0.102000X-0.900000X-0.900000X0.900000X-0.900000X0.900000X0.900000X-0.900000X0.900000X0*%
%ADD16C,1.700000*%
G04 APERTURE END LIST*
D10*
%TO.C,C6*%
X123190000Y-55245000D03*
D11*
X126690000Y-55245000D03*
%TD*%
D10*
%TO.C,C4*%
X123190000Y-118745000D03*
D11*
X126690000Y-118745000D03*
%TD*%
D10*
%TO.C,C1*%
X82550000Y-55245000D03*
D11*
X79050000Y-55245000D03*
%TD*%
D10*
%TO.C,C3*%
X82550000Y-118745000D03*
D11*
X79050000Y-118745000D03*
%TD*%
D10*
%TO.C,C5*%
X123190000Y-86995000D03*
D11*
X126690000Y-86995000D03*
%TD*%
D10*
%TO.C,C2*%
X82550000Y-86995000D03*
D11*
X79050000Y-86995000D03*
%TD*%
D12*
%TO.C,J17*%
X106045000Y-70485000D03*
D13*
X108585000Y-70485000D03*
X111125000Y-70485000D03*
X113665000Y-70485000D03*
%TD*%
D12*
%TO.C,J5*%
X147320000Y-106045000D03*
D13*
X147320000Y-103505000D03*
X147320000Y-100965000D03*
X147320000Y-98425000D03*
%TD*%
%TO.C,J10*%
X146050000Y-118745000D03*
X143510000Y-118745000D03*
D12*
X148590000Y-118745000D03*
%TD*%
D13*
%TO.C,J9*%
X59690000Y-118745000D03*
X62230000Y-118745000D03*
D12*
X57150000Y-118745000D03*
%TD*%
%TO.C,J16*%
X101595000Y-54610000D03*
D13*
X104135000Y-54610000D03*
%TD*%
D12*
%TO.C,J6*%
X147320000Y-74295000D03*
D13*
X147320000Y-71755000D03*
X147320000Y-69215000D03*
X147320000Y-66675000D03*
%TD*%
D12*
%TO.C,J2*%
X58420000Y-99060000D03*
D13*
X58420000Y-101600000D03*
X58420000Y-104140000D03*
X58420000Y-106680000D03*
%TD*%
D14*
%TO.C,J15*%
X94940000Y-55245000D03*
D15*
X91440000Y-55245000D03*
%TD*%
D12*
%TO.C,J13*%
X99695000Y-70485000D03*
D13*
X97155000Y-70485000D03*
X94615000Y-70485000D03*
X92075000Y-70485000D03*
%TD*%
D12*
%TO.C,J3*%
X58420000Y-130810000D03*
D13*
X58420000Y-133350000D03*
X58420000Y-135890000D03*
X58420000Y-138430000D03*
%TD*%
%TO.C,J12*%
X146050000Y-55245000D03*
X143510000Y-55245000D03*
D12*
X148590000Y-55245000D03*
%TD*%
%TO.C,U13*%
X114300000Y-89535000D03*
D13*
X91440000Y-142875000D03*
D12*
X91440000Y-89535000D03*
D13*
X91440000Y-92075000D03*
X91440000Y-94615000D03*
X91440000Y-97155000D03*
X91440000Y-99695000D03*
X91440000Y-102235000D03*
X91440000Y-104775000D03*
X91440000Y-107315000D03*
X91440000Y-109855000D03*
X91440000Y-112395000D03*
X91440000Y-114935000D03*
X91440000Y-117475000D03*
X91440000Y-120015000D03*
X91440000Y-122555000D03*
X91440000Y-125095000D03*
X91440000Y-127635000D03*
X91440000Y-130175000D03*
X91440000Y-132715000D03*
X91440000Y-135255000D03*
X91440000Y-137795000D03*
X91440000Y-140335000D03*
X114300000Y-92075000D03*
X114300000Y-94615000D03*
X114300000Y-97155000D03*
X114300000Y-99695000D03*
X114300000Y-102235000D03*
X114300000Y-104775000D03*
X114300000Y-107315000D03*
X114300000Y-109855000D03*
X114300000Y-112395000D03*
X114300000Y-114935000D03*
X114300000Y-117475000D03*
X114300000Y-120015000D03*
X114300000Y-122555000D03*
X114300000Y-125095000D03*
X114300000Y-127635000D03*
X114300000Y-130175000D03*
X114300000Y-132715000D03*
X114300000Y-135255000D03*
X114300000Y-137795000D03*
X114300000Y-140335000D03*
X114300000Y-142875000D03*
%TD*%
D12*
%TO.C,J1*%
X58420000Y-67320000D03*
D13*
X58420000Y-69860000D03*
X58420000Y-72400000D03*
X58420000Y-74940000D03*
%TD*%
%TO.C,J7*%
X62230000Y-55245000D03*
X59690000Y-55245000D03*
D12*
X57150000Y-55245000D03*
%TD*%
D13*
%TO.C,J8*%
X62230000Y-86995000D03*
X59690000Y-86995000D03*
D12*
X57150000Y-86995000D03*
%TD*%
%TO.C,J4*%
X147320000Y-137795000D03*
D13*
X147320000Y-135255000D03*
X147320000Y-132715000D03*
X147320000Y-130175000D03*
%TD*%
D14*
%TO.C,J14*%
X114300000Y-55245000D03*
D15*
X110800000Y-55245000D03*
%TD*%
D13*
%TO.C,J11*%
X146050000Y-86995000D03*
X143510000Y-86995000D03*
D12*
X148590000Y-86995000D03*
%TD*%
D16*
%TO.C,U6*%
X80010000Y-125730000D03*
X64770000Y-125730000D03*
D12*
X82550000Y-138430000D03*
D16*
X80010000Y-138430000D03*
X77470000Y-138430000D03*
X74930000Y-138430000D03*
X72390000Y-138430000D03*
X69850000Y-138430000D03*
X67310000Y-138430000D03*
X64770000Y-138430000D03*
D12*
X82550000Y-125730000D03*
D16*
X77470000Y-125730000D03*
X74930000Y-125730000D03*
X72390000Y-125730000D03*
X69850000Y-125730000D03*
X67310000Y-125730000D03*
%TD*%
%TO.C,U1*%
X80010000Y-79375000D03*
X64770000Y-79375000D03*
D12*
X82550000Y-66675000D03*
D16*
X80010000Y-66675000D03*
X77470000Y-66675000D03*
X74930000Y-66675000D03*
X72390000Y-66675000D03*
X69850000Y-66675000D03*
X67310000Y-66675000D03*
X64770000Y-66675000D03*
D12*
X82550000Y-79375000D03*
D16*
X77470000Y-79375000D03*
X74930000Y-79375000D03*
X72390000Y-79375000D03*
X69850000Y-79375000D03*
X67310000Y-79375000D03*
%TD*%
%TO.C,U12*%
X125730000Y-79375000D03*
X140970000Y-79375000D03*
D12*
X123190000Y-66675000D03*
D16*
X125730000Y-66675000D03*
X128270000Y-66675000D03*
X130810000Y-66675000D03*
X133350000Y-66675000D03*
X135890000Y-66675000D03*
X138430000Y-66675000D03*
X140970000Y-66675000D03*
D12*
X123190000Y-79375000D03*
D16*
X128270000Y-79375000D03*
X130810000Y-79375000D03*
X133350000Y-79375000D03*
X135890000Y-79375000D03*
X138430000Y-79375000D03*
%TD*%
%TO.C,U4*%
X80010000Y-93980000D03*
X64770000Y-93980000D03*
D12*
X82550000Y-106680000D03*
D16*
X80010000Y-106680000D03*
X77470000Y-106680000D03*
X74930000Y-106680000D03*
X72390000Y-106680000D03*
X69850000Y-106680000D03*
X67310000Y-106680000D03*
X64770000Y-106680000D03*
D12*
X82550000Y-93980000D03*
D16*
X77470000Y-93980000D03*
X74930000Y-93980000D03*
X72390000Y-93980000D03*
X69850000Y-93980000D03*
X67310000Y-93980000D03*
%TD*%
%TO.C,U3*%
X80010000Y-111125000D03*
X64770000Y-111125000D03*
D12*
X82550000Y-98425000D03*
D16*
X80010000Y-98425000D03*
X77470000Y-98425000D03*
X74930000Y-98425000D03*
X72390000Y-98425000D03*
X69850000Y-98425000D03*
X67310000Y-98425000D03*
X64770000Y-98425000D03*
D12*
X82550000Y-111125000D03*
D16*
X77470000Y-111125000D03*
X74930000Y-111125000D03*
X72390000Y-111125000D03*
X69850000Y-111125000D03*
X67310000Y-111125000D03*
%TD*%
%TO.C,U5*%
X80010000Y-142875000D03*
X64770000Y-142875000D03*
D12*
X82550000Y-130175000D03*
D16*
X80010000Y-130175000D03*
X77470000Y-130175000D03*
X74930000Y-130175000D03*
X72390000Y-130175000D03*
X69850000Y-130175000D03*
X67310000Y-130175000D03*
X64770000Y-130175000D03*
D12*
X82550000Y-142875000D03*
D16*
X77470000Y-142875000D03*
X74930000Y-142875000D03*
X72390000Y-142875000D03*
X69850000Y-142875000D03*
X67310000Y-142875000D03*
%TD*%
%TO.C,U8*%
X125730000Y-142875000D03*
X140970000Y-142875000D03*
D12*
X123190000Y-130175000D03*
D16*
X125730000Y-130175000D03*
X128270000Y-130175000D03*
X130810000Y-130175000D03*
X133350000Y-130175000D03*
X135890000Y-130175000D03*
X138430000Y-130175000D03*
X140970000Y-130175000D03*
D12*
X123190000Y-142875000D03*
D16*
X128270000Y-142875000D03*
X130810000Y-142875000D03*
X133350000Y-142875000D03*
X135890000Y-142875000D03*
X138430000Y-142875000D03*
%TD*%
%TO.C,U11*%
X125730000Y-62230000D03*
X140970000Y-62230000D03*
D12*
X123190000Y-74930000D03*
D16*
X125730000Y-74930000D03*
X128270000Y-74930000D03*
X130810000Y-74930000D03*
X133350000Y-74930000D03*
X135890000Y-74930000D03*
X138430000Y-74930000D03*
X140970000Y-74930000D03*
D12*
X123190000Y-62230000D03*
D16*
X128270000Y-62230000D03*
X130810000Y-62230000D03*
X133350000Y-62230000D03*
X135890000Y-62230000D03*
X138430000Y-62230000D03*
%TD*%
%TO.C,U7*%
X125730000Y-125730000D03*
X140970000Y-125730000D03*
D12*
X123190000Y-138430000D03*
D16*
X125730000Y-138430000D03*
X128270000Y-138430000D03*
X130810000Y-138430000D03*
X133350000Y-138430000D03*
X135890000Y-138430000D03*
X138430000Y-138430000D03*
X140970000Y-138430000D03*
D12*
X123190000Y-125730000D03*
D16*
X128270000Y-125730000D03*
X130810000Y-125730000D03*
X133350000Y-125730000D03*
X135890000Y-125730000D03*
X138430000Y-125730000D03*
%TD*%
%TO.C,U10*%
X125730000Y-111125000D03*
X140970000Y-111125000D03*
D12*
X123190000Y-98425000D03*
D16*
X125730000Y-98425000D03*
X128270000Y-98425000D03*
X130810000Y-98425000D03*
X133350000Y-98425000D03*
X135890000Y-98425000D03*
X138430000Y-98425000D03*
X140970000Y-98425000D03*
D12*
X123190000Y-111125000D03*
D16*
X128270000Y-111125000D03*
X130810000Y-111125000D03*
X133350000Y-111125000D03*
X135890000Y-111125000D03*
X138430000Y-111125000D03*
%TD*%
%TO.C,U2*%
X80010000Y-62230000D03*
X64770000Y-62230000D03*
D12*
X82550000Y-74930000D03*
D16*
X80010000Y-74930000D03*
X77470000Y-74930000D03*
X74930000Y-74930000D03*
X72390000Y-74930000D03*
X69850000Y-74930000D03*
X67310000Y-74930000D03*
X64770000Y-74930000D03*
D12*
X82550000Y-62230000D03*
D16*
X77470000Y-62230000D03*
X74930000Y-62230000D03*
X72390000Y-62230000D03*
X69850000Y-62230000D03*
X67310000Y-62230000D03*
%TD*%
%TO.C,U9*%
X125730000Y-93980000D03*
X140970000Y-93980000D03*
D12*
X123190000Y-106680000D03*
D16*
X125730000Y-106680000D03*
X128270000Y-106680000D03*
X130810000Y-106680000D03*
X133350000Y-106680000D03*
X135890000Y-106680000D03*
X138430000Y-106680000D03*
X140970000Y-106680000D03*
D12*
X123190000Y-93980000D03*
D16*
X128270000Y-93980000D03*
X130810000Y-93980000D03*
X133350000Y-93980000D03*
X135890000Y-93980000D03*
X138430000Y-93980000D03*
%TD*%
M02*
