M48
; DRILL file {KiCad 9.0.0} date 2025-02-26T12:43:22+0100
; FORMAT={-:-/ absolute / inch / decimal}
; #@! TF.CreationDate,2025-02-26T12:43:22+01:00
; #@! TF.GenerationSoftware,Kicad,Pcbnew,9.0.0
; #@! TF.FileFunction,Plated,1,2,PTH
FMAT,2
INCH
; #@! TA.AperFunction,Plated,PTH,ViaDrill
T1C0.0118
; #@! TA.AperFunction,Plated,PTH,ComponentDrill
T2C0.0315
; #@! TA.AperFunction,Plated,PTH,ComponentDrill
T3C0.0394
; #@! TA.AperFunction,Plated,PTH,ComponentDrill
T4C0.0472
%
G90
G05
T1
X2.1345Y-5.7745
X2.155Y-5.795
X2.175Y-5.815
X2.2Y-3.555
X2.2Y-3.59
X2.2Y-4.445
X2.2Y-4.48
X2.2Y-4.515
X2.2094Y-5.7
X2.23Y-3.52
X2.23Y-3.555
X2.23Y-5.72
X2.235Y-4.48
X2.235Y-4.515
X2.25Y-5.74
X2.265Y-3.49
X2.265Y-3.525
X2.27Y-4.515
X2.275Y-3.685
X2.285Y-4.325
X2.285Y-4.36
X2.3Y-3.66
X2.305Y-4.91
X2.315Y-5.525
X2.32Y-4.36
X2.32Y-4.395
X2.325Y-3.635
X2.335Y-4.875
X2.35Y-3.61
X2.35Y-4.4
X2.35Y-4.435
X2.35Y-5.525
X2.35Y-5.56
X2.365Y-4.845
X2.375Y-3.585
X2.38Y-4.435
X2.38Y-4.47
X2.385Y-5.265
X2.385Y-5.295
X2.385Y-5.33
X2.385Y-5.365
X2.39Y-4.995
X2.39Y-5.03
X2.39Y-5.065
X2.395Y-4.815
X2.4Y-3.56
X2.42Y-4.975
X2.42Y-5.01
X2.42Y-5.045
X2.42Y-5.265
X2.42Y-5.295
X2.42Y-5.33
X2.42Y-5.365
X2.425Y-3.26
X2.43Y-2.31
X2.43Y-4.815
X2.435Y-3.56
X2.455Y-4.945
X2.455Y-4.98
X2.455Y-5.015
X2.46Y-3.26
X2.465Y-2.31
X2.465Y-4.815
X2.47Y-3.56
X2.495Y-3.26
X2.5Y-2.31
X2.5Y-4.815
X2.505Y-3.56
X2.53Y-3.26
X2.535Y-2.31
X2.535Y-4.815
X2.54Y-2.155
X2.54Y-2.19
X2.54Y-3.56
X2.55Y-3.41
X2.55Y-3.445
X2.55Y-4.665
X2.55Y-4.7
X2.565Y-3.26
X2.57Y-2.31
X2.57Y-4.815
X2.575Y-2.155
X2.575Y-2.19
X2.575Y-3.56
X2.585Y-3.41
X2.585Y-3.445
X2.585Y-4.665
X2.585Y-4.7
X2.6Y-3.26
X2.605Y-2.31
X2.605Y-4.815
X2.61Y-2.155
X2.61Y-2.19
X2.61Y-3.56
X2.62Y-3.41
X2.62Y-3.445
X2.62Y-4.665
X2.62Y-4.7
X2.635Y-3.26
X2.64Y-2.31
X2.64Y-4.815
X2.645Y-2.155
X2.645Y-2.19
X2.645Y-3.56
X2.655Y-3.41
X2.655Y-3.445
X2.655Y-4.665
X2.655Y-4.7
X2.67Y-3.26
X2.675Y-2.31
X2.675Y-4.815
X2.68Y-3.56
X2.705Y-3.26
X2.71Y-2.31
X2.71Y-4.815
X2.715Y-3.56
X2.725Y-3.235
X2.73Y-4.845
X2.735Y-3.59
X2.74Y-3.26
X2.745Y-2.31
X2.745Y-4.815
X2.75Y-2.37
X2.75Y-3.56
X2.755Y-4.45
X2.76Y-3.235
X2.76Y-4.88
X2.765Y-3.2
X2.765Y-3.625
X2.765Y-4.845
X2.77Y-3.59
X2.775Y-3.26
X2.78Y-2.31
X2.78Y-4.815
X2.785Y-2.37
X2.785Y-3.56
X2.79Y-4.45
X2.795Y-3.235
X2.795Y-4.88
X2.8Y-3.2
X2.8Y-3.625
X2.8Y-4.845
X2.805Y-3.59
X2.81Y-3.26
X2.815Y-2.31
X2.815Y-4.815
X2.82Y-2.37
X2.82Y-3.56
X2.825Y-4.45
X2.83Y-3.2
X2.83Y-3.235
X2.83Y-3.625
X2.83Y-4.88
X2.835Y-4.845
X2.84Y-3.59
X2.85Y-2.37
X2.86Y-4.45
X2.86Y-4.88
X2.865Y-3.2
X2.865Y-3.625
X2.88Y-2.37
X2.895Y-3.2
X2.895Y-3.625
X2.905Y-2.12
X2.905Y-2.155
X2.905Y-2.19
X2.94Y-2.12
X2.94Y-2.155
X2.94Y-2.19
X2.96Y-4.535
X2.96Y-4.57
X2.96Y-4.605
X2.96Y-4.64
X2.96Y-4.675
X2.975Y-2.12
X2.975Y-2.155
X2.975Y-2.19
X3.005Y-3.27
X3.005Y-3.3
X3.005Y-3.33
X3.005Y-3.36
X3.01Y-2.12
X3.01Y-2.155
X3.01Y-2.19
X3.01Y-4.52
X3.01Y-4.555
X3.01Y-4.59
X3.045Y-4.52
X3.045Y-4.555
X3.045Y-4.59
X3.055Y-2.37
X3.055Y-4.79
X3.075Y-3.525
X3.08Y-4.52
X3.08Y-4.555
X3.08Y-4.59
X3.08Y-5.7
X3.085Y-2.37
X3.09Y-4.79
X3.105Y-3.525
X3.11Y-3.275
X3.11Y-3.31
X3.11Y-3.345
X3.115Y-2.37
X3.115Y-4.52
X3.115Y-4.555
X3.115Y-4.59
X3.115Y-5.7
X3.125Y-4.79
X3.135Y-3.525
X3.145Y-2.37
X3.145Y-3.275
X3.145Y-3.31
X3.145Y-3.345
X3.15Y-5.7
X3.155Y-4.79
X3.165Y-3.525
X3.175Y-2.37
X3.18Y-3.275
X3.18Y-3.31
X3.18Y-3.345
X3.185Y-5.7
X3.195Y-3.525
X3.215Y-3.275
X3.215Y-3.31
X3.215Y-3.345
X3.22Y-5.7
X3.255Y-5.7
X3.29Y-5.7
X3.325Y-5.665
X3.325Y-5.7
X3.36Y-5.63
X3.36Y-5.665
X3.36Y-5.7
X3.365Y-2.415
X3.365Y-2.45
X3.395Y-5.42
X3.395Y-5.455
X3.395Y-5.49
X3.395Y-5.525
X3.395Y-5.56
X3.395Y-5.595
X3.395Y-5.63
X3.395Y-5.665
X3.395Y-5.7
X3.4Y-2.415
X3.4Y-2.45
X3.4Y-2.49
X3.4Y-2.525
X3.4Y-2.56
X3.4Y-3.475
X3.4Y-4.25
X3.4Y-5.25
X3.43Y-5.385
X3.43Y-5.42
X3.43Y-5.455
X3.43Y-5.49
X3.43Y-5.525
X3.43Y-5.56
X3.43Y-5.595
X3.43Y-5.63
X3.43Y-5.665
X3.43Y-5.7
X3.435Y-2.45
X3.435Y-2.49
X3.435Y-2.525
X3.435Y-2.56
X3.45Y-3.475
X3.45Y-4.425
X3.45Y-5.25
X3.465Y-2.675
X3.465Y-2.705
X3.465Y-2.74
X3.465Y-2.78
X3.465Y-2.82
X3.465Y-5.35
X3.465Y-5.385
X3.465Y-5.42
X3.465Y-5.455
X3.465Y-5.49
X3.465Y-5.525
X3.465Y-5.56
X3.465Y-5.595
X3.465Y-5.63
X3.465Y-5.665
X3.465Y-5.7
X3.4675Y-3.0775
X3.4875Y-3.0975
X3.5Y-3.475
X3.5Y-4.4
X3.5Y-5.25
X3.5Y-5.315
X3.5Y-5.35
X3.5Y-5.385
X3.5Y-5.42
X3.5Y-5.455
X3.5Y-5.49
X3.5Y-5.525
X3.5Y-5.56
X3.5Y-5.595
X3.5Y-5.63
X3.5Y-5.665
X3.5Y-5.7
X3.51Y-3.12
X3.535Y-3.145
X3.555Y-3.165
X3.775Y-3.9
X3.775Y-5.7
X3.8Y-3.75
X3.825Y-3.7
X3.825Y-5.45
X3.825Y-5.55
X3.825Y-5.65
X3.905Y-2.95
X3.905Y-2.985
X3.905Y-3.02
X3.905Y-3.055
X3.905Y-3.5
X3.905Y-3.535
X3.905Y-3.57
X3.905Y-3.605
X3.94Y-2.95
X3.94Y-2.985
X3.94Y-3.02
X3.94Y-3.055
X3.94Y-3.5
X3.94Y-3.535
X3.94Y-3.57
X3.94Y-3.605
X3.975Y-2.95
X3.975Y-2.985
X3.975Y-3.02
X3.975Y-3.055
X3.975Y-3.5
X3.975Y-3.535
X3.975Y-3.57
X3.975Y-3.605
X4.05Y-3.625
X4.095Y-5.37
X4.095Y-5.405
X4.095Y-5.44
X4.095Y-5.475
X4.095Y-5.51
X4.095Y-5.545
X4.095Y-5.58
X4.095Y-5.615
X4.095Y-5.65
X4.13Y-5.37
X4.13Y-5.405
X4.13Y-5.44
X4.13Y-5.475
X4.13Y-5.51
X4.13Y-5.545
X4.13Y-5.58
X4.13Y-5.615
X4.13Y-5.65
X4.15Y-2.94
X4.15Y-2.975
X4.15Y-3.01
X4.15Y-3.045
X4.165Y-5.37
X4.165Y-5.405
X4.165Y-5.44
X4.165Y-5.475
X4.165Y-5.51
X4.165Y-5.545
X4.165Y-5.58
X4.165Y-5.615
X4.165Y-5.65
X4.185Y-2.94
X4.185Y-2.975
X4.185Y-3.01
X4.185Y-3.045
X4.22Y-2.94
X4.22Y-2.975
X4.22Y-3.01
X4.2224Y-3.325
X4.2224Y-3.375
X4.2224Y-3.425
X4.2224Y-3.725
X4.2224Y-3.825
X4.2224Y-4.125
X4.4Y-3.425
X4.4224Y-3.375
X4.425Y-3.325
X4.57Y-3.215
X4.5975Y-2.695
X4.5975Y-3.2425
X4.6Y-3.925
X4.6Y-5.6
X4.6275Y-3.2725
X4.63Y-2.695
X4.65Y-3.775
X4.65Y-5.625
X4.655Y-3.3
X4.66Y-2.695
X4.68Y-3.325
X4.69Y-2.695
X4.7Y-4.2
X4.7Y-5.475
X4.72Y-2.695
X4.92Y-2.375
X4.95Y-2.375
X4.99Y-2.375
X5.025Y-2.375
X5.055Y-2.375
X5.065Y-2.135
X5.065Y-2.17
X5.065Y-2.205
X5.095Y-3.235
X5.095Y-3.26
X5.095Y-3.285
X5.095Y-3.315
X5.095Y-3.34
X5.095Y-3.39
X5.095Y-3.42
X5.095Y-3.45
X5.095Y-3.48
X5.095Y-3.51
X5.1Y-2.135
X5.1Y-2.17
X5.1Y-2.205
X5.13Y-4.515
X5.13Y-4.545
X5.13Y-4.575
X5.13Y-4.605
X5.13Y-4.635
X5.13Y-4.665
X5.13Y-4.695
X5.13Y-4.725
X5.135Y-2.135
X5.135Y-2.17
X5.135Y-2.205
X5.17Y-2.135
X5.17Y-2.17
X5.17Y-2.205
X5.19Y-2.375
X5.22Y-2.375
X5.23Y-4.875
X5.24Y-3.625
X5.24Y-4.45
X5.25Y-2.375
X5.255Y-3.235
X5.255Y-3.59
X5.255Y-4.84
X5.26Y-4.8
X5.26Y-4.875
X5.265Y-2.34
X5.265Y-3.2
X5.265Y-4.485
X5.27Y-3.625
X5.27Y-4.45
X5.275Y-3.265
X5.275Y-3.56
X5.275Y-4.82
X5.28Y-2.375
X5.285Y-2.31
X5.285Y-4.515
X5.29Y-3.2
X5.29Y-3.235
X5.29Y-3.59
X5.29Y-4.84
X5.29Y-4.875
X5.295Y-3.625
X5.295Y-4.8
X5.3Y-2.34
X5.3Y-4.45
X5.3Y-4.485
X5.31Y-2.375
X5.31Y-3.265
X5.31Y-3.56
X5.31Y-4.82
X5.315Y-3.2
X5.32Y-2.31
X5.32Y-3.625
X5.32Y-4.515
X5.32Y-4.875
X5.325Y-3.235
X5.325Y-3.59
X5.325Y-4.84
X5.33Y-4.45
X5.33Y-4.8
X5.335Y-2.34
X5.335Y-4.485
X5.34Y-3.2
X5.345Y-2.375
X5.345Y-3.265
X5.345Y-3.56
X5.345Y-3.625
X5.35Y-4.875
X5.355Y-2.31
X5.355Y-4.515
X5.36Y-3.235
X5.36Y-3.59
X5.36Y-4.45
X5.36Y-4.84
X5.365Y-3.2
X5.37Y-2.34
X5.37Y-4.485
X5.38Y-3.265
X5.38Y-3.56
X5.39Y-2.31
X5.39Y-4.515
X5.415Y-3.265
X5.415Y-3.56
X5.425Y-2.31
X5.425Y-4.515
X5.45Y-3.265
X5.45Y-3.415
X5.45Y-3.45
X5.45Y-3.56
X5.45Y-4.66
X5.45Y-4.695
X5.45Y-4.83
X5.46Y-2.31
X5.46Y-4.515
X5.485Y-3.265
X5.485Y-3.415
X5.485Y-3.45
X5.485Y-3.56
X5.485Y-4.66
X5.485Y-4.695
X5.485Y-4.83
X5.495Y-2.31
X5.495Y-4.515
X5.52Y-3.265
X5.52Y-3.415
X5.52Y-3.45
X5.52Y-3.56
X5.52Y-4.66
X5.52Y-4.695
X5.52Y-4.83
X5.53Y-2.31
X5.53Y-4.515
X5.555Y-3.265
X5.555Y-3.415
X5.555Y-3.45
X5.555Y-3.56
X5.555Y-4.66
X5.555Y-4.695
X5.555Y-4.83
X5.565Y-2.31
X5.565Y-4.515
X5.59Y-3.265
X5.59Y-3.56
X5.59Y-4.83
X5.6Y-2.31
X5.6Y-4.515
X5.625Y-3.265
X5.625Y-3.56
X5.625Y-4.83
X5.625Y-4.985
X5.635Y-2.31
X5.635Y-4.515
X5.645Y-5.56
X5.655Y-4.92
X5.655Y-4.95
X5.655Y-4.985
X5.66Y-3.265
X5.66Y-3.56
X5.66Y-4.83
X5.67Y-2.31
X5.67Y-4.515
X5.675Y-5.53
X5.675Y-5.56
X5.685Y-4.92
X5.685Y-4.95
X5.685Y-4.985
X5.685Y-5.02
X5.685Y-5.21
X5.685Y-5.24
X5.685Y-5.27
X5.685Y-5.3
X5.695Y-4.83
X5.715Y-4.955
X5.715Y-4.985
X5.715Y-5.02
X5.715Y-5.055
X5.715Y-5.21
X5.715Y-5.24
X5.715Y-5.27
X5.715Y-5.3
X5.745Y-4.985
X5.745Y-5.02
X5.745Y-5.055
X5.745Y-5.085
X5.795Y-5.705
X5.8Y-4.575
X5.82Y-5.68
X5.835Y-4.54
X5.835Y-4.575
X5.8425Y-5.6575
X5.865Y-5.635
X5.87Y-4.505
X5.87Y-4.54
X5.87Y-4.575
X5.895Y-5.805
X5.905Y-4.47
X5.905Y-4.505
X5.905Y-4.54
X5.905Y-4.575
X5.915Y-5.785
X5.9375Y-5.7625
X5.96Y-5.74
T2
X3.1122Y-2.175
X3.1122Y-3.425
X3.1122Y-4.675
X3.25Y-2.175
X3.25Y-3.425
X3.25Y-4.675
X4.85Y-2.175
X4.85Y-3.425
X4.85Y-4.675
X4.9878Y-2.175
X4.9878Y-3.425
X4.9878Y-4.675
T3
X2.25Y-2.175
X2.25Y-3.425
X2.25Y-4.675
X2.3Y-2.6504
X2.3Y-2.7504
X2.3Y-2.8504
X2.3Y-2.9504
X2.3Y-3.9
X2.3Y-4.0
X2.3Y-4.1
X2.3Y-4.2
X2.3Y-5.15
X2.3Y-5.25
X2.3Y-5.35
X2.3Y-5.45
X2.35Y-2.175
X2.35Y-3.425
X2.35Y-4.675
X2.45Y-2.175
X2.45Y-3.425
X2.45Y-4.675
X2.55Y-2.45
X2.55Y-2.625
X2.55Y-2.95
X2.55Y-3.125
X2.55Y-3.7
X2.55Y-3.875
X2.55Y-4.2
X2.55Y-4.375
X2.55Y-4.95
X2.55Y-5.125
X2.55Y-5.45
X2.55Y-5.625
X2.65Y-2.45
X2.65Y-2.625
X2.65Y-2.95
X2.65Y-3.125
X2.65Y-3.7
X2.65Y-3.875
X2.65Y-4.2
X2.65Y-4.375
X2.65Y-4.95
X2.65Y-5.125
X2.65Y-5.45
X2.65Y-5.625
X2.75Y-2.45
X2.75Y-2.625
X2.75Y-2.95
X2.75Y-3.125
X2.75Y-3.7
X2.75Y-3.875
X2.75Y-4.2
X2.75Y-4.375
X2.75Y-4.95
X2.75Y-5.125
X2.75Y-5.45
X2.75Y-5.625
X2.85Y-2.45
X2.85Y-2.625
X2.85Y-2.95
X2.85Y-3.125
X2.85Y-3.7
X2.85Y-3.875
X2.85Y-4.2
X2.85Y-4.375
X2.85Y-4.95
X2.85Y-5.125
X2.85Y-5.45
X2.85Y-5.625
X2.95Y-2.45
X2.95Y-2.625
X2.95Y-2.95
X2.95Y-3.125
X2.95Y-3.7
X2.95Y-3.875
X2.95Y-4.2
X2.95Y-4.375
X2.95Y-4.95
X2.95Y-5.125
X2.95Y-5.45
X2.95Y-5.625
X3.05Y-2.45
X3.05Y-2.625
X3.05Y-2.95
X3.05Y-3.125
X3.05Y-3.7
X3.05Y-3.875
X3.05Y-4.2
X3.05Y-4.375
X3.05Y-4.95
X3.05Y-5.125
X3.05Y-5.45
X3.05Y-5.625
X3.15Y-2.45
X3.15Y-2.625
X3.15Y-2.95
X3.15Y-3.125
X3.15Y-3.7
X3.15Y-3.875
X3.15Y-4.2
X3.15Y-4.375
X3.15Y-4.95
X3.15Y-5.125
X3.15Y-5.45
X3.15Y-5.625
X3.25Y-2.45
X3.25Y-2.625
X3.25Y-2.95
X3.25Y-3.125
X3.25Y-3.7
X3.25Y-3.875
X3.25Y-4.2
X3.25Y-4.375
X3.25Y-4.95
X3.25Y-5.125
X3.25Y-5.45
X3.25Y-5.625
X3.6Y-3.525
X3.6Y-3.625
X3.6Y-3.725
X3.6Y-3.825
X3.6Y-3.925
X3.6Y-4.025
X3.6Y-4.125
X3.6Y-4.225
X3.6Y-4.325
X3.6Y-4.425
X3.6Y-4.525
X3.6Y-4.625
X3.6Y-4.725
X3.6Y-4.825
X3.6Y-4.925
X3.6Y-5.025
X3.6Y-5.125
X3.6Y-5.225
X3.6Y-5.325
X3.6Y-5.425
X3.6Y-5.525
X3.6Y-5.625
X3.625Y-2.775
X3.725Y-2.775
X3.825Y-2.775
X3.925Y-2.775
X3.9998Y-2.15
X4.0998Y-2.15
X4.175Y-2.775
X4.275Y-2.775
X4.375Y-2.775
X4.475Y-2.775
X4.5Y-3.525
X4.5Y-3.625
X4.5Y-3.725
X4.5Y-3.825
X4.5Y-3.925
X4.5Y-4.025
X4.5Y-4.125
X4.5Y-4.225
X4.5Y-4.325
X4.5Y-4.425
X4.5Y-4.525
X4.5Y-4.625
X4.5Y-4.725
X4.5Y-4.825
X4.5Y-4.925
X4.5Y-5.025
X4.5Y-5.125
X4.5Y-5.225
X4.5Y-5.325
X4.5Y-5.425
X4.5Y-5.525
X4.5Y-5.625
X4.85Y-2.45
X4.85Y-2.625
X4.85Y-2.95
X4.85Y-3.125
X4.85Y-3.7
X4.85Y-3.875
X4.85Y-4.2
X4.85Y-4.375
X4.85Y-4.95
X4.85Y-5.125
X4.85Y-5.45
X4.85Y-5.625
X4.95Y-2.45
X4.95Y-2.625
X4.95Y-2.95
X4.95Y-3.125
X4.95Y-3.7
X4.95Y-3.875
X4.95Y-4.2
X4.95Y-4.375
X4.95Y-4.95
X4.95Y-5.125
X4.95Y-5.45
X4.95Y-5.625
X5.05Y-2.45
X5.05Y-2.625
X5.05Y-2.95
X5.05Y-3.125
X5.05Y-3.7
X5.05Y-3.875
X5.05Y-4.2
X5.05Y-4.375
X5.05Y-4.95
X5.05Y-5.125
X5.05Y-5.45
X5.05Y-5.625
X5.15Y-2.45
X5.15Y-2.625
X5.15Y-2.95
X5.15Y-3.125
X5.15Y-3.7
X5.15Y-3.875
X5.15Y-4.2
X5.15Y-4.375
X5.15Y-4.95
X5.15Y-5.125
X5.15Y-5.45
X5.15Y-5.625
X5.25Y-2.45
X5.25Y-2.625
X5.25Y-2.95
X5.25Y-3.125
X5.25Y-3.7
X5.25Y-3.875
X5.25Y-4.2
X5.25Y-4.375
X5.25Y-4.95
X5.25Y-5.125
X5.25Y-5.45
X5.25Y-5.625
X5.35Y-2.45
X5.35Y-2.625
X5.35Y-2.95
X5.35Y-3.125
X5.35Y-3.7
X5.35Y-3.875
X5.35Y-4.2
X5.35Y-4.375
X5.35Y-4.95
X5.35Y-5.125
X5.35Y-5.45
X5.35Y-5.625
X5.45Y-2.45
X5.45Y-2.625
X5.45Y-2.95
X5.45Y-3.125
X5.45Y-3.7
X5.45Y-3.875
X5.45Y-4.2
X5.45Y-4.375
X5.45Y-4.95
X5.45Y-5.125
X5.45Y-5.45
X5.45Y-5.625
X5.55Y-2.45
X5.55Y-2.625
X5.55Y-2.95
X5.55Y-3.125
X5.55Y-3.7
X5.55Y-3.875
X5.55Y-4.2
X5.55Y-4.375
X5.55Y-4.95
X5.55Y-5.125
X5.55Y-5.45
X5.55Y-5.625
X5.65Y-2.175
X5.65Y-3.425
X5.65Y-4.675
X5.75Y-2.175
X5.75Y-3.425
X5.75Y-4.675
X5.8Y-2.625
X5.8Y-2.725
X5.8Y-2.825
X5.8Y-2.925
X5.8Y-3.875
X5.8Y-3.975
X5.8Y-4.075
X5.8Y-4.175
X5.8Y-5.125
X5.8Y-5.225
X5.8Y-5.325
X5.8Y-5.425
X5.85Y-2.175
X5.85Y-3.425
X5.85Y-4.675
T4
X3.6Y-2.175
X3.7378Y-2.175
X4.3622Y-2.175
X4.5Y-2.175
M30
